<svg xmlns="http://www.w3.org/2000/svg" xmlns:xlink="http://www.w3.org/1999/xlink" width="464.34" height="449.901" viewBox="0 0 464.34 449.901">
  <defs>
    <linearGradient id="linear-gradient" x1="0.5" y1="1" x2="0.5" gradientUnits="objectBoundingBox">
      <stop offset="0" stop-color="gray" stop-opacity="0.251"/>
      <stop offset="0.54" stop-color="gray" stop-opacity="0.122"/>
      <stop offset="1" stop-color="gray" stop-opacity="0.102"/>
    </linearGradient>
    <linearGradient id="linear-gradient-2" x1="0.5" x2="0.5" xlink:href="#linear-gradient"/>
  </defs>
  <g id="Grupo_5969" data-name="Grupo 5969" transform="translate(-1504.344 -1563.499)">
    <path id="Trazado_2382" data-name="Trazado 2382" d="M545.97,327.7c-.4.383-.777.756-1.173,1.118a39.336,39.336,0,0,1-4.583,3.627c-8.324,5.7-18.586,8.477-28.581,10.367-22.417,4.241-45.3,5.065-68.092,5.874-61.576,2.194-123.3,4.383-184.726-.672-24.269-1.995-49.073-5.333-71.065-15.569q-4.728-2.194-9.271-4.84a75.314,75.314,0,0,1-16.908-13.123,47.506,47.506,0,0,1-10.557-16.829c-4.648-13.249-2.188-28.13,3.119-41.116a137.341,137.341,0,0,1,7.439-15.1c4.1-7.312,8.616-14.414,12.737-21.721,14.667-25.973,24.237-58.832,10.7-85.471-3.891-7.653-9.514-14.372-12.685-22.361-4.045-10.22-3.733-21.569-2.447-32.592q.251-2.1.53-4.157c2.2-16.346,6.33-33.957,19.076-44.161,13.239-10.6,32.04-10.068,48.47-6.3C263.5,30.6,287.073,42.924,310.893,54.053s48.741,21.3,74.92,22.387c23.117.966,50.08-6.262,65.422-25.049,14.9-18.246,42.912-19.637,63.1-8.614,13.858,7.564,24.2,21.191,28.557,36.518a59.434,59.434,0,0,1,1.9,9.511,56.768,56.768,0,0,1,.34,8.971c-.061,1.48-.178,2.945-.34,4.394-3.373,30.245-27.655,54.1-42.415,81.12-7.212,13.2-12.3,29.049-7.345,43.279,7.564,21.684,33.868,29.4,49.752,45.531a45.177,45.177,0,0,1,7.807,10.393C560.293,296.856,557.45,316.251,545.97,327.7Z" transform="translate(1411.776 1541.691)" fill="#dae9fd" opacity="0.1"/>
    <g id="flowers" transform="translate(1504.344 1563.499)">
      <path id="Trazado_2383" data-name="Trazado 2383" d="M200.9,252.794S176.755,210,140.368,197.678a74.424,74.424,0,0,1-37.71-28.209A124.928,124.928,0,0,1,91.53,149.46" transform="translate(-65.473 -82.261)" fill="none" stroke="#535461" stroke-width="2"/>
      <path id="Trazado_2384" data-name="Trazado 2384" d="M45.066,118.127c4.147,4.005,23.453,8.2,23.453,8.2s-4.724-19.17-8.882-23.2a10.461,10.461,0,1,0-14.572,15.013Z" transform="translate(-41.89 -58.849)" fill="#7e8496"/>
      <path id="Trazado_2385" data-name="Trazado 2385" d="M61.121,181.706c5.664,1.123,24.146-5.874,24.146-5.874S70.858,162.31,65.189,161.187a10.46,10.46,0,1,0-4.069,20.521Z" transform="translate(-47.022 -87.736)" fill="#7e8496"/>
      <path id="Trazado_2386" data-name="Trazado 2386" d="M131.631,253.682c5.459-1.89,17.847-17.254,17.847-17.254s-19.254-4.4-24.708-2.514a10.461,10.461,0,1,0,6.824,19.768Z" transform="translate(-77.77 -122.16)" fill="#7e8496"/>
      <path id="Trazado_2387" data-name="Trazado 2387" d="M202.988,294.432c5.7-.945,20.524-13.989,20.524-13.989s-18.23-7.6-23.931-6.656a10.462,10.462,0,1,0,3.407,20.645Z" transform="translate(-112.645 -141.29)" fill="#7e8496"/>
      <path id="Trazado_2388" data-name="Trazado 2388" d="M126.455,151.059c0,5.774-10.446,22.534-10.446,22.534s-10.467-16.75-10.472-22.524a10.461,10.461,0,1,1,20.918,0Z" transform="translate(-72.127 -77.944)" fill="#7e8496"/>
      <path id="Trazado_2389" data-name="Trazado 2389" d="M207.661,198.048c-1.727,5.512-16.713,18.372-16.713,18.372s-4.976-19.133-3.27-24.671A10.461,10.461,0,0,1,207.624,198Z" transform="translate(-110.983 -99.071)" fill="#7e8496"/>
      <path id="Trazado_2390" data-name="Trazado 2390" d="M279.114,257.819c-.766,5.727-13.364,20.933-13.364,20.933s-8.136-17.994-7.349-23.721a10.461,10.461,0,1,1,20.735,2.787Z" transform="translate(-144.727 -128.109)" fill="#7e8496"/>
      <path id="Trazado_2391" data-name="Trazado 2391" d="M45.066,118.127c4.147,4.005,23.453,8.2,23.453,8.2s-4.724-19.17-8.882-23.2a10.461,10.461,0,1,0-14.572,15.013Z" transform="translate(-41.89 -58.849)" fill="#7e8496"/>
      <path id="Trazado_2393" data-name="Trazado 2393" d="M131.631,253.682c5.459-1.89,17.847-17.254,17.847-17.254s-19.254-4.4-24.708-2.514a10.461,10.461,0,1,0,6.824,19.768Z" transform="translate(-77.77 -122.16)" fill="#7e8496"/>
      <path id="Trazado_2394" data-name="Trazado 2394" d="M202.988,294.432c5.7-.945,20.524-13.989,20.524-13.989s-18.23-7.6-23.931-6.656a10.462,10.462,0,1,0,3.407,20.645Z" transform="translate(-112.645 -141.29)" fill="#7e8496" opacity="0.25"/>
      <path id="Trazado_2396" data-name="Trazado 2396" d="M207.661,198.048c-1.727,5.512-16.713,18.372-16.713,18.372s-4.976-19.133-3.27-24.671A10.461,10.461,0,0,1,207.624,198Z" transform="translate(-110.983 -99.071)" fill="#7e8496" opacity="0.25"/>
      <path id="Trazado_2397" data-name="Trazado 2397" d="M279.114,257.819c-.766,5.727-13.364,20.933-13.364,20.933s-8.136-17.994-7.349-23.721a10.461,10.461,0,1,1,20.735,2.787Z" transform="translate(-144.727 -128.109)" fill="#7e8496" opacity="0.25"/>
      <path id="Trazado_2398" data-name="Trazado 2398" d="M244.648,219.072s-4.724-48.911-33.006-74.926A74.4,74.4,0,0,1,188.6,103.077,125.008,125.008,0,0,1,186.54,80.27" transform="translate(-110.611 -49.39)" fill="none" stroke="#535461" stroke-width="2"/>
      <path id="Trazado_2399" data-name="Trazado 2399" d="M152.087,35.823c2.163,5.359,18.125,16.986,18.125,16.986S173.651,33.361,171.493,28a10.469,10.469,0,0,0-19.422,7.821Z" transform="translate(-93.875 -21.441)" fill="#7e8496"/>
      <path id="Trazado_2400" data-name="Trazado 2400" d="M140.987,100.472c4.724,3.323,24.445,4.409,24.445,4.409s-7.648-18.193-12.372-21.516a10.469,10.469,0,0,0-12.073,17.107Z" transform="translate(-86.864 -49.95)" fill="#7e8496"/>
      <path id="Trazado_2401" data-name="Trazado 2401" d="M176.426,194.851c5.774.488,23.327-8.535,23.327-8.535s-15.816-11.826-21.574-12.309a10.461,10.461,0,1,0-1.753,20.844Z" transform="translate(-101.143 -93.895)" fill="#7e8496"/>
      <path id="Trazado_2402" data-name="Trazado 2402" d="M225.059,260.975c5.6,1.449,24.435-4.472,24.435-4.472s-13.59-14.33-19.18-15.779a10.461,10.461,0,1,0-5.249,20.252Z" transform="translate(-125.19 -125.46)" fill="#7e8496"/>
      <path id="Trazado_2403" data-name="Trazado 2403" d="M213.043,99.125c-2.336,5.281-18.682,16.361-18.682,16.361s-2.782-19.548-.446-24.834a10.461,10.461,0,1,1,19.129,8.473Z" transform="translate(-113.672 -51.364)" fill="#7e8496"/>
      <path id="Trazado_2404" data-name="Trazado 2404" d="M264.433,174.4c-3.811,4.341-22.723,10.026-22.723,10.026s3.191-19.485,7.008-23.826a10.457,10.457,0,0,1,15.716,13.8Z" transform="translate(-136.822 -85.864)" fill="#7e8496"/>
      <path id="Trazado_2405" data-name="Trazado 2405" d="M308.261,258.368c-3.023,4.924-20.7,13.721-20.7,13.721s-.147-19.747,2.877-24.671a10.469,10.469,0,0,1,17.847,10.95Z" transform="translate(-158.604 -126.427)" fill="#7e8496"/>
    </g>
    <ellipse id="Elipse_387" data-name="Elipse 387" cx="58.543" cy="7.622" rx="58.543" ry="7.622" transform="translate(1660.053 1995.333)" fill="#6c63ff" opacity="0.1"/>
    <g id="floor_flowers" data-name="floor flowers" transform="translate(1581.068 1968.468)">
      <ellipse id="Elipse_388" data-name="Elipse 388" cx="17.784" cy="3.044" rx="17.784" ry="3.044" transform="translate(1.492 30.854)" fill="#6c63ff" opacity="0.1"/>
      <path id="Trazado_2406" data-name="Trazado 2406" d="M224.95,792.94s2.882,3.774-1.333,9.448-7.69,10.5-6.3,14.052c0,0,6.357-10.577,11.548-10.724S230.651,799.3,224.95,792.94Z" transform="translate(-201.81 -792.94)" fill="#f49325"/>
      <path id="Trazado_2407" data-name="Trazado 2407" d="M225.109,792.94a4.635,4.635,0,0,1,.588,1.186c5.05,5.932,7.742,11.469,2.887,11.606-4.519.131-9.947,8.215-11.244,10.257a4.859,4.859,0,0,0,.152.467s6.357-10.577,11.548-10.724S230.809,799.3,225.109,792.94Z" transform="translate(-201.969 -792.94)" opacity="0.1"/>
      <path id="Trazado_2408" data-name="Trazado 2408" d="M241.747,801.322c0,1.328-.147,2.4-.331,2.4s-.336-1.05-.336-2.4.189-.7.373-.7S241.747,799.994,241.747,801.322Z" transform="translate(-213.248 -796.514)" fill="#ffd037"/>
      <path id="Trazado_2409" data-name="Trazado 2409" d="M243.8,804.294c-1.165.635-2.184,1.018-2.273.856s.787-.808,1.953-1.444.7-.173.793,0S244.962,803.659,243.8,804.294Z" transform="translate(-213.456 -797.9)" fill="#ffd037"/>
      <path id="Trazado_2410" data-name="Trazado 2410" d="M197.259,792.94s-2.882,3.774,1.333,9.448,7.69,10.5,6.3,14.052c0,0-6.357-10.577-11.548-10.724S191.569,799.3,197.259,792.94Z" transform="translate(-189.353 -792.94)" fill="#f49325"/>
      <path id="Trazado_2411" data-name="Trazado 2411" d="M197.249,792.94a4.634,4.634,0,0,0-.588,1.186c-5.05,5.932-7.742,11.469-2.887,11.606,4.525.131,9.947,8.215,11.244,10.257a3.731,3.731,0,0,1-.152.467s-6.357-10.577-11.548-10.724S191.559,799.3,197.249,792.94Z" transform="translate(-189.342 -792.94)" opacity="0.1"/>
      <path id="Trazado_2412" data-name="Trazado 2412" d="M192.91,801.322c0,1.328.147,2.4.331,2.4s.336-1.05.336-2.4-.189-.7-.373-.7S192.91,799.994,192.91,801.322Z" transform="translate(-190.362 -796.514)" fill="#ffd037"/>
      <path id="Trazado_2413" data-name="Trazado 2413" d="M188.767,804.294c1.165.635,2.178,1.018,2.268.856s-.787-.808-1.953-1.444-.7-.173-.793,0S187.6,803.659,188.767,804.294Z" transform="translate(-188.057 -797.9)" fill="#ffd037"/>
      <path id="Trazado_2414" data-name="Trazado 2414" d="M194.66,832.855s8.063-.252,10.5-1.979,12.4-3.8,13-1.024,12.115,13.8,3.013,13.873-21.149-1.417-23.574-2.892S194.66,832.855,194.66,832.855Z" transform="translate(-191.194 -809.833)" fill="#a8a8a8"/>
      <path id="Trazado_2415" data-name="Trazado 2415" d="M221.331,846.7c-9.1.073-21.149-1.417-23.574-2.892-1.848-1.129-2.583-5.165-2.829-7.023h-.268s.525,6.5,2.934,7.979,14.472,2.966,23.574,2.892c2.625,0,3.538-.955,3.485-2.341C224.291,846.16,223.289,846.68,221.331,846.7Z" transform="translate(-191.194 -813.768)" opacity="0.2"/>
      <path id="Trazado_2416" data-name="Trazado 2416" d="M689.689,836.184S667.5,834.845,670.115,850.4a3.783,3.783,0,0,0,1.968,3.995s.042-1.15,2.278-.761a10.163,10.163,0,0,0,2.409.115,4.987,4.987,0,0,0,2.95-1.218h0s6.236-2.572,8.661-12.771c0,0,1.8-2.226,1.727-2.8l-3.748,1.575s1.281,2.7.273,4.95c0,0-.121-4.85-.84-4.724-.147,0-1.948.934-1.948.934s2.2,4.724.525,8.126c0,0,.63-5.774-1.228-7.784l-2.625,1.538s2.572,4.861.829,8.829c0,0,.446-6.084-1.38-8.456l-2.388,1.863s2.415,4.792.94,8.084c0,0-.189-7.081-1.459-7.616a13.743,13.743,0,0,0-2.409,2.625s1.653,3.475.63,5.312c0,0-.63-4.724-1.15-4.724,0,0-2.1,3.149-2.3,5.249a11.429,11.429,0,0,1,1.8-5.569,6.266,6.266,0,0,0-3.186,1.653s.325-2.21,3.674-2.4a14.376,14.376,0,0,1,2.184-2.514,13.668,13.668,0,0,0-5.4.619s1.79-2.1,6.01-1.139l2.357-1.921s-4.42-.609-6.3.063c0,0,2.163-1.848,6.934-.525l2.572-1.533a23.424,23.424,0,0,0-6.021-.525s2.373-1.281,6.771.1l1.837-.824s-2.766-.525-3.575-.625-.85-.31-.85-.31a9.584,9.584,0,0,1,5.191.577S689.758,836.431,689.689,836.184Z" transform="translate(-416.975 -813.471)" fill="#f49325"/>
      <ellipse id="Elipse_389" data-name="Elipse 389" cx="15.705" cy="2.656" rx="15.705" ry="2.656" transform="translate(241.723 39.62)" fill="#6c63ff" opacity="0.1"/>
      <path id="Trazado_2417" data-name="Trazado 2417" d="M623.442,837.775s-12.514-.756-11.023,8.015a2.142,2.142,0,0,0,1.113,2.252s0-.651,1.286-.43a6.126,6.126,0,0,0,1.354.068,2.871,2.871,0,0,0,1.664-.688h0s3.517-1.454,4.887-7.2c0,0,1.008-1.255.971-1.575l-2.1.9a3.8,3.8,0,0,1,.152,2.792s-.068-2.735-.472-2.672c-.084,0-1.1.525-1.1.525s1.239,2.625.3,4.582c0,0,.352-3.27-.693-4.393l-1.485.871s1.449,2.74.467,4.976c0,0,.252-3.433-.782-4.766l-1.344,1.05s1.359,2.7.525,4.556c0,0-.11-3.995-.824-4.294a8.21,8.21,0,0,0-1.36,1.464s.934,1.963.357,3c0,0-.357-2.661-.646-2.672a8.818,8.818,0,0,0-1.3,2.971,6.378,6.378,0,0,1,1.008-3.149,3.527,3.527,0,0,0-1.8.929s.184-1.249,2.1-1.354a7.949,7.949,0,0,1,1.228-1.417,7.691,7.691,0,0,0-3.044.346s1.013-1.176,3.391-.64l1.328-1.087a10.941,10.941,0,0,0-3.548.037s1.218-1.05,3.911-.283l1.444-.861a12.97,12.97,0,0,0-3.391-.294,5.219,5.219,0,0,1,3.816.058l1.05-.462s-1.575-.31-2.01-.357-.483-.173-.483-.173a5.417,5.417,0,0,1,2.929.325A12.364,12.364,0,0,0,623.442,837.775Z" transform="translate(-389.608 -814.233)" fill="#f49325"/>
      <ellipse id="Elipse_390" data-name="Elipse 390" cx="8.855" cy="1.496" rx="8.855" ry="1.496" transform="translate(216.36 33.08)" fill="#6c63ff" opacity="0.1"/>
      <path id="Trazado_2418" data-name="Trazado 2418" d="M666.71,802.362s-15.1-.913-13.322,9.674a2.583,2.583,0,0,0,1.344,2.719s0-.782,1.549-.525a7.448,7.448,0,0,0,1.638.079,3.459,3.459,0,0,0,2.01-.829h0s4.247-1.753,5.895-8.7c0,0,1.223-1.512,1.176-1.9l-2.551,1.087a4.589,4.589,0,0,1,.189,3.37s-.084-3.3-.577-3.223c-.094,0-1.323.635-1.323.635s1.5,3.207.367,5.533c0,0,.43-3.947-.835-5.3l-1.8,1.05s1.753,3.307.567,6.01c0,0,.3-4.142-.945-5.774l-1.627,1.265s1.648,3.26.646,5.5c0,0-.131-4.819-1-5.186a9.883,9.883,0,0,0-1.638,1.769s1.129,2.367.425,3.617c0,0-.425-3.207-.777-3.223a10.538,10.538,0,0,0-1.575,3.585,7.722,7.722,0,0,1,1.218-3.79,4.268,4.268,0,0,0-2.168,1.123s.221-1.506,2.52-1.638a9.872,9.872,0,0,1,1.485-1.711,9.346,9.346,0,0,0-3.674.425s1.218-1.423,4.094-.777l1.606-1.307s-3.013-.415-4.288.042c0,0,1.47-1.255,4.724-.341l1.748-1.05a17.221,17.221,0,0,0-4.094-.352s1.612-.871,4.609.068l1.249-.556s-1.884-.373-2.436-.43-.577-.21-.577-.21a6.524,6.524,0,0,1,3.533.394A15.4,15.4,0,0,0,666.71,802.362Z" transform="translate(-409.061 -797.407)" fill="#f49325"/>
      <ellipse id="Elipse_391" data-name="Elipse 391" cx="10.692" cy="1.806" rx="10.692" ry="1.806" transform="translate(236.558 16.466)" fill="#6c63ff" opacity="0.1"/>
    </g>
    <g id="browser" transform="translate(1576.13 1613.659)">
      <path id="Trazado_2419" data-name="Trazado 2419" d="M556.454,373.75V117H178.65V359.021a75.195,75.195,0,0,0,16.679,13.48q4.472,2.724,9.134,4.981H551.947Z" transform="translate(-178.65 -117)" fill="url(#linear-gradient)"/>
      <path id="Trazado_2420" data-name="Trazado 2420" d="M556.476,380.506V131H180.73V366.213a75.266,75.266,0,0,0,16.578,13.123q4.45,2.625,9.09,4.84H551.983Z" transform="translate(-179.638 -123.651)" fill="#fff"/>
      <rect id="Rectángulo_2832" data-name="Rectángulo 2832" width="375.741" height="13.196" transform="translate(1.097 0.73)" fill="#5a5773"/>
    </g>
    <g id="buttons" transform="translate(1583.747 1617.575)">
      <circle id="Elipse_392" data-name="Elipse 392" cx="3.412" cy="3.412" r="3.412" fill="#fff"/>
      <circle id="Elipse_393" data-name="Elipse 393" cx="3.412" cy="3.412" r="3.412" transform="translate(9.186)" fill="#fff"/>
      <circle id="Elipse_394" data-name="Elipse 394" cx="3.412" cy="3.412" r="3.412" transform="translate(18.372)" fill="#fff"/>
    </g>
    <g id="boxes" transform="translate(1590.571 1656.586)">
      <rect id="Rectángulo_2833" data-name="Rectángulo 2833" width="82.149" height="51.62" transform="translate(113.743)" fill="#01b9fe"/>
      <rect id="Rectángulo_2834" data-name="Rectángulo 2834" width="82.149" height="51.62" fill="#5a5773" opacity="0.2"/>
      <rect id="Rectángulo_2836" data-name="Rectángulo 2836" width="82.149" height="51.62" transform="translate(0 73.797)" fill="#5a5773" opacity="0.2"/>
      <rect id="Rectángulo_2837" data-name="Rectángulo 2837" width="82.149" height="51.62" transform="translate(113.743 73.797)" fill="#5a5773" opacity="0.2"/>
      <rect id="Rectángulo_2839" data-name="Rectángulo 2839" width="82.149" height="51.62" transform="translate(0 147.589)" fill="#5a5773" opacity="0.2"/>
      <rect id="Rectángulo_2840" data-name="Rectángulo 2840" width="82.149" height="51.62" transform="translate(113.743 147.589)" fill="#5a5773" opacity="0.2"/>
    </g>
    <g id="woman" transform="translate(1685.233 1669.477)">
      <path id="Trazado_2421" data-name="Trazado 2421" d="M473.042,339.8s-14.755-26.97-12.267-31.358a59.767,59.767,0,0,0,4.32-10.74s5.449-3.727,5.449-5.249,4.315-5.044,6.588-6.577,1.134-8.771,0-9.648a20,20,0,0,1-2.934-3.947s1.575-4.383,0-5.7.231-2.625,0-3.947a52.969,52.969,0,0,1,0-6.136,9.892,9.892,0,0,0-5.806-4.2l-.168-.693-.971-4.089s4.724-9.055-2.94-13.795a12.812,12.812,0,0,0-1.7-.892,5.884,5.884,0,0,0-.042-.593,37.1,37.1,0,0,0-1.113-6.934c-.4-1.27-.919-2.126-1.575-1.932a1.05,1.05,0,0,0-.43.247,4.787,4.787,0,0,0-.814.961h0a.216.216,0,0,1-.037.058,16.462,16.462,0,0,0-1.806,5.013,28.95,28.95,0,0,0-.525,3.149h0a17.317,17.317,0,0,0-.877,1.947c-.929,2.409-2.016,6.582-.037,9.669,1.68,2.625,3.942,6.231,5.585,8.855l.052.084.1.163-.173.11v.4l.152,2.21,1.27,19.1a8.114,8.114,0,0,0-1.165-.247,10.585,10.585,0,0,0-1.7-.11c-1.108-4.352-4.147-8.4-4.724-12.944a12,12,0,0,1-.089-1.37c.047-2.861.761-5.732.7-8.588,0-.525,0-1.05-.052-1.575h0a4.2,4.2,0,0,0-.042-.436,12.907,12.907,0,0,0-7.018-9.779c-1.318-.656-2.745-1.092-4.026-1.811-2.961-1.659-4.855-4.651-7.543-6.7-2-1.527-4.987-2.346-7.218-1.575a33.328,33.328,0,0,0-3.512.724h0a31.678,31.678,0,0,0-8.036,3.338c-.341.2-.682.415-1.008.656a4.441,4.441,0,0,0-1.622,1.895,4.965,4.965,0,0,0-.252,2.042c0,.5,0,1.008.031,1.507-.147,8.4-9.2,14.9-9.942,23.1,0,.194-.031.388-.042.583v.9h0v.656c.131,3.6,2,6.945,2.341,10.524.031.32.047.635.052.955a15.874,15.874,0,0,1-.929,4.819,14.1,14.1,0,0,0-3.26,1.323c-2.751,1.769-7.716,4.824-9.527,10.666a15.623,15.623,0,0,0-.688,4.682,97.766,97.766,0,0,1-1.533,16.718,31.249,31.249,0,0,1-.966,4.11.967.967,0,0,0-.031.4l-1.092,14.173-.194,2.493L389,340.006s.079.215.194.577a16.693,16.693,0,0,1,.43,1.638,8.808,8.808,0,0,1,.142,3.674,2.53,2.53,0,0,1-.766,1.349.566.566,0,0,0-.089.1,10.9,10.9,0,0,0-.829,3.611c-.094.735-.184,1.575-.273,2.446-.525,5.59-.85,13.957-1.05,20.876-.189,6.824-.257,12.215-.257,12.215a13.932,13.932,0,0,0,2.819,1.4c-.074.184-.152.373-.226.572a27.574,27.574,0,0,0-1.711,7.212c-.441,5.16,1,10.892,8.2,13.842a11.572,11.572,0,0,0,1.412.483,4.478,4.478,0,0,0,3.59-.22c0,.31.037.609.053.908.073,1.281.136,2.451.168,3.433.226,6.141,1.748,16.881,1.748,16.881s.525,4.388.068,5.7,0,6.577,0,6.577,1.575,2.625,0,3.947-2.042,7.874-1.575,8.771a.3.3,0,0,1,.026.1c.346,2.178-1.611,34.544-1.611,34.544s-1.853,4.955-3.328,10.1c-1.438,5.008-2.52,10.194-1.186,11.165a11.141,11.141,0,0,0,4.152,1.123c0,.215-.031.43-.052.651-.189,2.315-.488,4.808-.919,5.438-.625.892-1.281,7.811-1.6,11.548l-.031.415a38.682,38.682,0,0,0-1.69,4.9s-5.023,12.6-3.323,15.868a2.682,2.682,0,0,0,.625.772h0a1.414,1.414,0,0,0,.163.147c2.42,1.937,8.483,2.341,10.682,2.43l-.084,3.118v.115h2.861v-.079c0-.394.063-2.2.157-4.614,0-.43.031-.882.052-1.344,0-.362.037-.73.052-1.108a19.421,19.421,0,0,0,1.244-7.008,30.747,30.747,0,0,1,1.1-8.126,22.57,22.57,0,0,1,1.454-3.963s.892-4.724-.352-8.068a5.825,5.825,0,0,0-1.05-1.816c0-.11,0-.22,0-.336v-.714a30.283,30.283,0,0,1,.672-6.729.745.745,0,0,1,0-.105c.042-.184.089-.357.137-.525l.031-.115.929.031c2.85.079,4.945.079,4.945.079s2.273-11.622,2.047-16.661v-.682a64.9,64.9,0,0,1,1.375-11.816l1.832-17.768s-.908-3.076,0-5.249c.562-1.354,1.722-3.869,2.53-5.6.378-.8.677-1.433.8-1.706l.074-.147a3.4,3.4,0,0,1-.808-.4h0c-.74-.493-1.4-1.459.814-2.882,3.407-2.194,2.273-7.674,2.273-7.674a3.94,3.94,0,0,1,.178-3.727c1.181-1.753,0-8.33,0-8.33a27.543,27.543,0,0,0,2.331-5.485c.845-2.625,2.981-15.459,3.989-21.647.331-2.031.525-3.344.525-3.344l.031.32.031.346h0l.283,2.924.037.388.525,5.527s1.05,14.53.394,20.225v.1a6.729,6.729,0,0,1-.383,1.727c-1.207,2.729-.987,13.574-.924,15.973v.483a9.659,9.659,0,0,0-.64,3.706h0a2.378,2.378,0,0,0,.415,1.1,2.793,2.793,0,0,1,.4,1.706v.052a6.206,6.206,0,0,1-.063.756,14.415,14.415,0,0,1-.8,2.971s-1.218,3.2-.756,4.876h0a1.543,1.543,0,0,0,.3.593,1.4,1.4,0,0,1,.173.63.223.223,0,0,0,0,.058c.425,3.533-.672,19.128-1.323,27.663-.262,3.37-.451,5.638-.451,5.638l-1.8,18.634.178.126c.2.147.588.4,1.1.7v.042l-.079.562c-.257,1.8-.6,3.884-.982,5.48-.031.121-.058.236-.089.346a5.024,5.024,0,0,0-1.926.772c-3.821,6.787-2.131,12.167,0,13.732.6.441,1.013,1.674,1.286,3.207l.525,6.766v.777a2.016,2.016,0,0,0,.1.619l.163,2.052.22,2.855h1.743v-3.459h.094c2.751.094,7.186.21,9.118.058h.052a3.4,3.4,0,0,0,.525-.058,1.318,1.318,0,0,0,.3-.084c1.024-.493,3.575-7.727,1.276-9.37s-2.808-6.3-2.808-6.3c-.2-.609-.4-1.186-.6-1.737v-.357a28.87,28.87,0,0,1,.273-6.015,45.761,45.761,0,0,0,.6-7.186v-.667a8.958,8.958,0,0,0,1.171-.383l.084-.037a8.247,8.247,0,0,0,1.958-1.16l6.425-28.471.677-3.312,3.858-18.839s-1.36-6.577,0-7.669c.5-.4.635-2.1.6-4.068-.052-3.443-.6-7.774-.6-7.774s1.816-2.85,2.73-4.6,0-6.357,0-6.357l1.79-10.54s2.047-12.5,7.039-23.023c3.674-7.742,1.333-28.65-1.05-39.778-.063-.289-.126-.572-.189-.845v-.042c1.123-.556,2.5-1.228,3.968-1.932l.556-.262c1.863-.877,3.837-1.779,5.606-2.53l.115-.047a39.156,39.156,0,0,1,3.9-1.459,6.545,6.545,0,0,1,1.2-.247C482.58,356.456,473.042,339.8,473.042,339.8Zm-71.026,35.668h.945c-.11.2-.215.415-.32.625-.063.126-.126.247-.184.373-.346.719-.667,1.454-.929,2.173.1-.777.236-1.622.383-2.525C401.948,375.91,401.985,375.673,402.016,375.463Zm-2.551,13.684a.389.389,0,0,0,0-.073l-.079-.247c-.058-.168-.11-.336-.163-.525q.488-.147.992-.331h.068v.173c-.026.247-.058.493-.089.735h0a.52.52,0,0,1,0,.094,5.106,5.106,0,0,1-.068.577c-.047.378-.094.745-.136,1.1-.1-.331-.2-.656-.3-.976a2.489,2.489,0,0,1-.22-.525Z" transform="translate(-386.5 -223.338)" fill="url(#linear-gradient-2)"/>
      <path id="Trazado_2422" data-name="Trazado 2422" d="M528.177,256.623l-5.669,2.005-2.058-3.412c-1.575-2.625-3.758-6.215-5.37-8.824-2.845-4.588.877-11.58.877-11.58s.672-7.018,3.065-9.181,3.06,9.181,3.06,9.181c9.611,4.367,4.462,14.64,4.462,14.64l.934,4.073Z" transform="translate(-447.078 -224.297)" fill="#efb7b9"/>
      <path id="Trazado_2423" data-name="Trazado 2423" d="M534.007,281.946l-5.669,2.005-2.058-3.412v-.3a9.872,9.872,0,0,1,7.039-1.391Z" transform="translate(-452.908 -249.621)" opacity="0.1"/>
      <path id="Trazado_2424" data-name="Trazado 2424" d="M523.56,305.528l2.84-2.4-1.423-21.637s7.349-5.029,12.787,2.84a55.219,55.219,0,0,0,0,6.12c.22,1.312-1.527,2.625,0,3.932s0,5.685,0,5.685A19.735,19.735,0,0,0,540.583,304c1.092.871,2.189,8.089,0,9.616s-6.294,5.029-6.294,6.556-5.249,5.249-5.249,5.249l-4.609-6.094Z" transform="translate(-451.616 -250.212)" fill="#9966fe"/>
      <path id="Trazado_2425" data-name="Trazado 2425" d="M399.352,553.708c-10.593-4.493-8.241-15.469-6.246-21a28.581,28.581,0,0,1,1.4-3.275l5.942-3.606s1.213,3.092,2.509,7.239C405.966,542.716,409.425,557.986,399.352,553.708Z" transform="translate(-388.823 -367.048)" fill="#efb7b9"/>
      <path id="Trazado_2426" data-name="Trazado 2426" d="M421.748,767.161a17.844,17.844,0,0,0-1.575,4.42,31.919,31.919,0,0,0-.682,7.522c.042,1.748.189,2.892.189,2.892l-11.8,8.115s.068-.95.184-2.346c.3-3.716.94-10.614,1.538-11.506.415-.619.7-3.107.887-5.417s.257-4.336.257-4.336S424.945,761.182,421.748,767.161Z" transform="translate(-396.658 -480.353)" fill="#efb7b9"/>
      <path id="Trazado_2427" data-name="Trazado 2427" d="M476.925,779.856s0,2.257-.084,4.882a49.989,49.989,0,0,1-.572,7.165A29.5,29.5,0,0,0,476,797.9c.079,2.625.268,4.987.268,4.987s-12.047-11.391-10.818-12.293a5.582,5.582,0,0,0,.955-2.5c.367-1.575.7-3.674.945-5.459.294-2.126.478-3.837.478-3.837Z" transform="translate(-423.967 -487.227)" fill="#efb7b9"/>
      <path id="Trazado_2428" data-name="Trazado 2428" d="M424.133,767.161a17.847,17.847,0,0,0-1.575,4.42,96.43,96.43,0,0,1-9.658-.74c.178-2.257.257-4.336.257-4.336S427.33,761.182,424.133,767.161Z" transform="translate(-399.042 -480.353)" opacity="0.1"/>
      <path id="Trazado_2429" data-name="Trazado 2429" d="M478.724,779.865s0,2.257-.084,4.882c-3.758.961-7.622-.961-9.49-2.1.294-2.126.478-3.837.478-3.837Z" transform="translate(-425.766 -487.236)" opacity="0.1"/>
      <path id="Trazado_2430" data-name="Trazado 2430" d="M472.572,525.684c-4.808,10.5-6.777,22.949-6.777,22.949l-1.748,10.5s.877,4.588,0,6.336-2.625,4.593-2.625,4.593,1.312,10.708,0,11.8,0,7.648,0,7.648l-4.373,22.046-6.12,28.408c-5.9,4.813-13.753-1.307-13.753-1.307l1.732-18.577s2.625-32.544,1.533-33.878.436-5.464.436-5.464,1.533-3.937.441-5.464.215-4.808.215-4.808-.436-13.333.877-16.393,0-21.989,0-21.989l-.525-5.895-.3-3.265-.026-.32s-.2,1.307-.525,3.333c-.966,6.168-3.023,18.949-3.837,21.579a28.1,28.1,0,0,1-2.241,5.464s1.134,6.556,0,8.3a4.066,4.066,0,0,0-.173,3.716s1.092,5.464-2.189,7.648,0,3.281,0,3.281-2.4,5.249-3.275,7.427,0,5.249,0,5.249l-1.748,17.7s-1.533,7.428-1.312,12.456-1.968,16.608-1.968,16.608-16.829,0-19.422-1.968,4.331-21.17,4.331-21.17,1.968-33.657,1.527-34.529,0-7.433,1.533-8.74,0-3.937,0-3.937-.436-5.249,0-6.556-.068-5.685-.068-5.685-1.465-10.708-1.68-16.829-1.312-19.884-1.312-19.884,1.144-8.514,1.318-12.566a14.272,14.272,0,0,1,1.575-5.107,45.562,45.562,0,0,1,3.254-5.711S467.124,477.381,469.3,478.9c.577.4,1.417,3.149,2.247,7.123C473.853,497.129,476.11,517.968,472.572,525.684Z" transform="translate(-394.948 -344.704)" fill="#444053"/>
      <circle id="Elipse_395" data-name="Elipse 395" cx="15.081" cy="15.081" r="15.081" transform="translate(30.639 17.245)" fill="#a1616a"/>
      <path id="Trazado_2431" data-name="Trazado 2431" d="M478.6,486.037c-1.737.892-2.9,1.507-2.9,1.507s-24.477,11.585-31.437,10.929c-5.386-.525-19.133-.226-25.122-.079a45.571,45.571,0,0,1,3.254-5.711s51.788-15.3,53.961-13.779C476.933,479.318,477.773,482.053,478.6,486.037Z" transform="translate(-402.007 -344.704)" opacity="0.1"/>
      <path id="Trazado_2432" data-name="Trazado 2432" d="M426.881,327.312s-13.968,2.2-17.264,4.367-9.826,6.341-9.826,15.3-1.527,18.141-2.4,20.76,13.768,23.82,13.768,23.82l-5.249,32.13s21-.656,27.988,0,31.458-10.929,31.458-10.929,14.425-7.648,17.485-7.874-6.12-16.829-6.12-16.829-14.209-26.875-11.805-31.248a60.391,60.391,0,0,0,4.168-10.708l-2.625-22.288a8.574,8.574,0,0,0-7.212,1.092c-3.281,2.4-14.425,1.092-14.425,1.092Z" transform="translate(-391.654 -270.904)" fill="#9966fe"/>
      <path id="Trazado_2433" data-name="Trazado 2433" d="M399.931,395.118l-5.48,1.528-1.517,20.566s1.968,5.464,0,7.212-2.4,39.122-2.4,39.122a14.292,14.292,0,0,0,13.768,1.092s-1.092-4.152,2.189-19.233,3.275-22.729,3.275-22.729,0-18.8,1.533-21.857,0-10.708,0-10.708-3.06-4.152-2.845-5.68S399.931,395.118,399.931,395.118Z" transform="translate(-388.415 -299.808)" opacity="0.1"/>
      <path id="Trazado_2434" data-name="Trazado 2434" d="M404.513,533.1a13.958,13.958,0,0,1-9.853-.357,28.586,28.586,0,0,1,1.4-3.275L402,525.86S403.237,528.952,404.513,533.1Z" transform="translate(-390.377 -367.063)" opacity="0.1"/>
      <path id="Trazado_2435" data-name="Trazado 2435" d="M399.306,395.1l-5.464,1.527-1.527,20.566s1.968,5.464,0,7.212-2.4,39.122-2.4,39.122a14.275,14.275,0,0,0,13.768,1.071s-1.092-4.152,2.184-19.233,3.281-22.729,3.281-22.729,0-18.8,1.527-21.857,0-10.708,0-10.708-3.06-4.152-2.84-5.68S399.306,395.1,399.306,395.1Z" transform="translate(-388.12 -299.789)" fill="#9966fe"/>
      <path id="Trazado_2436" data-name="Trazado 2436" d="M504.309,411.15s-2.84,24.477-11.149,29.07C493.16,440.22,511.737,434.976,504.309,411.15Z" transform="translate(-437.173 -312.565)" opacity="0.1"/>
      <path id="Trazado_2437" data-name="Trazado 2437" d="M434.88,415.32s10.267,5.023,7.874,8.519S434.88,415.32,434.88,415.32Z" transform="translate(-409.485 -314.546)" opacity="0.1"/>
      <path id="Trazado_2438" data-name="Trazado 2438" d="M434.88,434.47s6.556,6.777,5.249,9.181S434.88,434.47,434.88,434.47Z" transform="translate(-409.485 -323.644)" opacity="0.1"/>
      <path id="Trazado_2439" data-name="Trazado 2439" d="M535.63,327.47s2.572,4.367,2.819,7.212S535.63,327.47,535.63,327.47Z" transform="translate(-457.35 -272.81)" opacity="0.1"/>
      <path id="Trazado_2440" data-name="Trazado 2440" d="M535.63,315.789s1.291-1.1,4.588,0S535.63,315.789,535.63,315.789Z" transform="translate(-457.35 -267.028)" opacity="0.1"/>
      <path id="Trazado_2441" data-name="Trazado 2441" d="M494.354,555.352A30.391,30.391,0,0,1,478.37,553.3l-2.756,7.055-.3-3.265c.451-2.74,1.328-5.674,3.06-6.414A26.526,26.526,0,0,0,494.354,555.352Z" transform="translate(-428.693 -378.854)" opacity="0.1"/>
      <path id="Trazado_2442" data-name="Trazado 2442" d="M426.18,577.07s13.443,2.787,17.212,2.294Z" transform="translate(-405.352 -391.392)" opacity="0.1"/>
      <path id="Trazado_2443" data-name="Trazado 2443" d="M428.84,583.76s5.737-.247,8.6.9Z" transform="translate(-406.615 -394.56)" opacity="0.1"/>
      <path id="Trazado_2444" data-name="Trazado 2444" d="M430.09,588.31a51.439,51.439,0,0,0,7.947,1.05Z" transform="translate(-407.209 -396.732)" opacity="0.1"/>
      <path id="Trazado_2445" data-name="Trazado 2445" d="M429.46,644.179c.247-.163,11.475-2.787,12.871-.9Z" transform="translate(-406.91 -422.524)" opacity="0.1"/>
      <path id="Trazado_2446" data-name="Trazado 2446" d="M429.46,651.708s9.753-1.15,10,0S429.46,651.708,429.46,651.708Z" transform="translate(-406.91 -426.609)" opacity="0.1"/>
      <path id="Trazado_2447" data-name="Trazado 2447" d="M429.46,656.553s10.409-2.152,11.637-1.627S429.46,656.553,429.46,656.553Z" transform="translate(-406.91 -428.341)" opacity="0.1"/>
      <path id="Trazado_2448" data-name="Trazado 2448" d="M419.72,794.037l-11.8,8.115s.068-.95.184-2.346a31.811,31.811,0,0,1,6.042-9.863c2.661-.693,4.341-.052,5.386,1.2C419.573,792.888,419.72,794.037,419.72,794.037Z" transform="translate(-396.676 -492.39)" opacity="0.1"/>
      <path id="Trazado_2449" data-name="Trazado 2449" d="M416.324,801.62a29.285,29.285,0,0,0-2.462,12.073,18.724,18.724,0,0,1-2.5,9.716,9.572,9.572,0,0,1-.829,1.186s-8.2-.068-11.07-2.446a2.84,2.84,0,0,1-.772-.945c-1.643-3.275,3.2-15.816,3.2-15.816,2.541-9.669,7.7-14.834,7.7-14.834C418.78,788.177,416.324,801.62,416.324,801.62Z" transform="translate(-392.131 -492.682)" fill="#444053"/>
      <path id="Trazado_2450" data-name="Trazado 2450" d="M412.37,837.116a9.569,9.569,0,0,1-.829,1.186s-8.2-.068-11.07-2.446c1.412-4.672,5.916-18.808,8.026-16.4C410.48,821.71,411.861,832.57,412.37,837.116Z" transform="translate(-393.137 -506.416)" opacity="0.1"/>
      <path id="Trazado_2451" data-name="Trazado 2451" d="M420.482,820.325,419.91,841.5h2.75s.446-18.577,1.674-21.175S420.482,820.325,420.482,820.325Z" transform="translate(-402.373 -506.411)" fill="#444053"/>
      <path id="Trazado_2452" data-name="Trazado 2452" d="M476.269,811.23s-12.047-11.391-10.818-12.293a5.582,5.582,0,0,0,.955-2.5c2.315-.4,6.3.562,9.6,9.811C476.08,808.868,476.269,811.23,476.269,811.23Z" transform="translate(-423.967 -495.573)" opacity="0.1"/>
      <path id="Trazado_2453" data-name="Trazado 2453" d="M475.279,824.235a1.227,1.227,0,0,1-.289.084,85.553,85.553,0,0,1-9.564,0,2.068,2.068,0,0,1-2-2.063c0-.787,0-1.748-.063-2.772-.137-3.233-.525-7.081-1.685-7.947-2.052-1.575-3.674-6.918,0-13.684,0,0,7.044-5.38,12.125,10.792,0,0,.493,4.614,2.7,6.252S476.266,823.768,475.279,824.235Z" transform="translate(-421.177 -495.875)" fill="#444053"/>
      <path id="Trazado_2454" data-name="Trazado 2454" d="M478.477,836.646a85.553,85.553,0,0,1-9.564,0,2.068,2.068,0,0,1-2-2.063c0-.787,0-1.748-.063-2.772.887-3.916,2.163-7.947,3.806-8.866C470.666,822.941,475.637,822.379,478.477,836.646Z" transform="translate(-424.673 -508.203)" opacity="0.1"/>
      <path id="Trazado_2455" data-name="Trazado 2455" d="M423.46,799.221l1.323,17.621h1.68V797.72Z" transform="translate(-382.066 -484.956)" fill="#444053"/>
      <path id="Trazado_2456" data-name="Trazado 2456" d="M446.109,239.1a30.141,30.141,0,0,0-13.448,4.32,5.589,5.589,0,0,0-2.535,2.546,8.439,8.439,0,0,0-.2,3.149c.142,9.039-9.937,15.879-9.622,24.912.126,3.585,1.926,6.924,2.257,10.5.551,5.963-2.976,11.448-6.357,16.388a13.574,13.574,0,0,0,9.58-3.176,72.642,72.642,0,0,1,1.339,36.613h4.834a3.675,3.675,0,0,1,1.412.173,3.548,3.548,0,0,1,1.118.835c4.52,4.5,7.548,11.149,5.821,17.291l10.288-3.858a30.561,30.561,0,0,0,7.1-3.386,10.256,10.256,0,0,0,4.388-6.325c.278-1.575.189-3.454,1.486-4.367a8.086,8.086,0,0,1,2.026-.751c2.824-1,4.073-4.262,4.651-7.2a41.469,41.469,0,0,0,.656-10.955c-.457-6.141-2.273-12.377-.777-18.372.845-3.365,2.724-6.5,2.876-9.973.247-5.727-4.231-10.661-4.9-16.356-.467-3.968.966-7.984.5-11.952a12.839,12.839,0,0,0-6.756-9.748c-1.265-.651-2.625-1.087-3.874-1.806-2.85-1.653-4.672-4.63-7.26-6.677s-6.9-2.819-8.845-.157Z" transform="translate(-400.61 -230.809)" opacity="0.1"/>
      <path id="Trazado_2457" data-name="Trazado 2457" d="M446.109,237.844a30.141,30.141,0,0,0-13.448,4.32,5.589,5.589,0,0,0-2.535,2.546,8.439,8.439,0,0,0-.2,3.149c.142,9.039-9.937,15.879-9.622,24.918.126,3.58,1.926,6.918,2.257,10.5.551,5.963-2.976,11.448-6.357,16.393a13.648,13.648,0,0,0,9.58-3.176,72.616,72.616,0,0,1,1.338,36.6h4.834a3.675,3.675,0,0,1,1.412.178,3.454,3.454,0,0,1,1.118.829c4.519,4.5,7.548,11.149,5.821,17.291l10.288-3.858a30.563,30.563,0,0,0,7.1-3.386,10.256,10.256,0,0,0,4.388-6.325c.278-1.575.189-3.454,1.486-4.367a8.082,8.082,0,0,1,2.026-.751c2.824-1,4.073-4.262,4.651-7.2a41.469,41.469,0,0,0,.672-10.965c-.457-6.141-2.273-12.377-.777-18.372.845-3.365,2.724-6.5,2.877-9.973.247-5.727-4.231-10.661-4.9-16.356-.467-3.968.966-7.979.5-11.952a12.85,12.85,0,0,0-6.756-9.748c-1.265-.651-2.625-1.087-3.874-1.8-2.85-1.659-4.672-4.635-7.259-6.682s-6.9-2.819-8.845-.157Z" transform="translate(-400.61 -230.206)" fill="#263238"/>
      <g id="Grupo_1389" data-name="Grupo 1389" transform="translate(15.59 15.47)" opacity="0.1">
        <path id="Trazado_2458" data-name="Trazado 2458" d="M442.292,252.81a5.839,5.839,0,0,0-.031.609C442.276,253.219,442.286,253.015,442.292,252.81Z" transform="translate(-428.581 -252.81)"/>
        <path id="Trazado_2459" data-name="Trazado 2459" d="M514.959,285.286c.189-2.782.808-5.575.577-8.346C515.364,279.722,514.744,282.515,514.959,285.286Z" transform="translate(-463.098 -264.274)"/>
        <path id="Trazado_2460" data-name="Trazado 2460" d="M426.262,310.548c-.3-3.254-1.821-6.3-2.178-9.548a11.965,11.965,0,0,0-.079,1.8c.126,3.543,1.884,6.855,2.241,10.383A14.171,14.171,0,0,0,426.262,310.548Z" transform="translate(-419.905 -275.705)"/>
        <path id="Trazado_2461" data-name="Trazado 2461" d="M518.481,335.6a22.509,22.509,0,0,0-.525,6.519,19.769,19.769,0,0,1,.525-3.785c.845-3.365,2.724-6.5,2.877-9.973a10.821,10.821,0,0,0-.084-1.848C520.864,329.633,519.232,332.541,518.481,335.6Z" transform="translate(-464.52 -287.824)"/>
        <path id="Trazado_2462" data-name="Trazado 2462" d="M425.78,344.36a13.648,13.648,0,0,1-7.748,3.149c-.6.934-1.218,1.848-1.832,2.751a13.648,13.648,0,0,0,9.58-3.176,72.437,72.437,0,0,1,3.055,19.658A72.6,72.6,0,0,0,425.78,344.36Z" transform="translate(-416.2 -296.304)"/>
        <path id="Trazado_2463" data-name="Trazado 2463" d="M492.091,393.692c-.577,2.94-1.827,6.2-4.651,7.2a7.874,7.874,0,0,0-2.026.756c-1.3.913-1.207,2.8-1.486,4.367a10.125,10.125,0,0,1-4.388,6.3,31.558,31.558,0,0,1-7.1,3.391l-9.816,3.674a13.547,13.547,0,0,1-.472,2.913l10.288-3.858a30.565,30.565,0,0,0,7.1-3.386,10.256,10.256,0,0,0,4.388-6.325c.278-1.575.189-3.454,1.486-4.367a8.081,8.081,0,0,1,2.026-.751c2.824-1,4.073-4.262,4.651-7.2a41.162,41.162,0,0,0,.74-9.291A41.1,41.1,0,0,1,492.091,393.692Z" transform="translate(-438.03 -316.614)"/>
        <path id="Trazado_2464" data-name="Trazado 2464" d="M444.414,415.076a3.47,3.47,0,0,0-1.118-.835,3.754,3.754,0,0,0-1.412-.178h-4.289c-.168.913-.346,1.827-.525,2.735H441.9a3.675,3.675,0,0,1,1.412.179,3.453,3.453,0,0,1,1.118.829,20.8,20.8,0,0,1,6.241,12.293C451.206,424.65,448.382,419.044,444.414,415.076Z" transform="translate(-426.115 -329.416)"/>
      </g>
      <path id="Trazado_2465" data-name="Trazado 2465" d="M405.37,449.421s3.905-1.638,4.777,0S405.37,449.421,405.37,449.421Z" transform="translate(-395.465 -330.402)" opacity="0.1"/>
      <path id="Trazado_2466" data-name="Trazado 2466" d="M408,454.771s3.905-1.638,4.782,0S408,454.771,408,454.771Z" transform="translate(-396.715 -332.943)" opacity="0.1"/>
    </g>
    <g id="leaves" transform="translate(1880.953 1568.023)">
      <path id="Trazado_2467" data-name="Trazado 2467" d="M852.991,51.657s-19.973-1.2-17.616,12.792a3.414,3.414,0,0,0,1.774,3.6s.037-1.05,2.047-.688a9.191,9.191,0,0,0,2.168.1,4.5,4.5,0,0,0,2.646-1.1h0s5.611-2.315,7.795-11.49c0,0,1.617-2.005,1.575-2.52L850.01,53.8a6.039,6.039,0,0,1,.242,4.451s-.105-4.367-.756-4.262c-.131,0-1.748.84-1.748.84s1.979,4.236.483,7.317c0,0,.567-5.218-1.1-7.008l-2.383,1.412s2.315,4.373.745,7.942c0,0,.4-5.475-1.244-7.606l-2.152,1.674s2.178,4.289.866,7.249c0,0-.173-6.378-1.318-6.855a12.984,12.984,0,0,0-2.163,2.341s1.485,3.149.562,4.777c0,0-.567-4.241-1.05-4.262,0,0-1.874,2.814-2.068,4.724a10.242,10.242,0,0,1,1.612-5.013,5.6,5.6,0,0,0-2.866,1.491s.289-1.989,3.328-2.168a13.094,13.094,0,0,1,1.963-2.262,12.308,12.308,0,0,0-4.855.562s1.612-1.879,5.412-1.05l2.1-1.732s-3.979-.525-5.669.058c0,0,1.942-1.659,6.241-.451l2.31-1.381a20.737,20.737,0,0,0-5.412-.467s2.131-1.15,6.089.094l1.654-.74s-2.488-.488-3.212-.567-.766-.278-.766-.278a8.588,8.588,0,0,1,4.667.525S853.049,51.877,852.991,51.657Z" transform="translate(-795.383 -40.308)" fill="#6c63ff" opacity="0.1"/>
      <path id="Trazado_2468" data-name="Trazado 2468" d="M805.929,30.06s-16.8,10.871-6.609,20.744a3.416,3.416,0,0,0,3.559,1.848s-.588-.861,1.244-1.769a9.111,9.111,0,0,0,1.811-1.2,4.519,4.519,0,0,0,1.486-2.451h0s3.149-5.2-.525-13.879c0,0,.115-2.572-.241-2.95L804.8,33.551a6.041,6.041,0,0,1,2.835,3.438s-2.672-3.449-3.15-2.981c-.094.094-.913,1.716-.913,1.716s4.11,2.236,4.724,5.6c0,0-2.625-4.54-5.044-4.987l-1.092,2.52s4.462,2.152,5.312,5.958c0,0-2.924-4.651-5.512-5.391l-.735,2.625s4.3,2.184,4.992,5.354c0,0-3.916-5.029-5.123-4.724a13.3,13.3,0,0,0-.357,3.149s3.055,1.638,3.286,3.517c0,0-2.971-3.081-3.354-2.824,0,0,.157,3.375,1.139,5.044a10.251,10.251,0,0,1-1.669-4.992,5.617,5.617,0,0,0-1.428,2.9s-.945-1.774,1.4-3.716a14.37,14.37,0,0,1,.236-2.987,12.151,12.151,0,0,0-3.58,3.328s.189-2.467,3.753-4.031l.682-2.651s-3.527,1.921-4.53,3.407c0,0,.583-2.488,4.756-4.063l1.05-2.483a21.361,21.361,0,0,0-4.64,2.835s1.05-2.194,4.966-3.533L803.693,34s-2.294,1.081-2.924,1.449-.782.231-.782.231a8.6,8.6,0,0,1,4.068-2.346S806.108,30.207,805.929,30.06Z" transform="translate(-776.788 -30.06)" fill="#6c63ff" opacity="0.1"/>
      <path id="Trazado_2469" data-name="Trazado 2469" d="M762.941,54.147S752.9,71.469,766.458,75.632a3.385,3.385,0,0,0,4.01,0s-.908-.493.31-2.136a9.193,9.193,0,0,0,1.05-1.89,4.535,4.535,0,0,0,.215-2.861h0s.446-6.057-6.771-12.131c0,0-1.05-2.341-1.575-2.514l-.226,3.674a6.052,6.052,0,0,1,4.089,1.779s-3.947-1.863-4.147-1.239c-.042.126-.037,1.942-.037,1.942s4.719.142,6.819,2.861c0,0-4.409-2.85-6.756-2.157l.168,2.74s4.95-.1,7.433,2.9c0,0-4.724-2.819-7.349-2.3l.525,2.672s4.829,0,6.876,2.509c0,0-5.774-2.709-6.714-1.905a12.973,12.973,0,0,0,1.118,2.987s3.464.073,4.525,1.643c0,0-4.047-1.4-4.273-.992,0,0,1.674,2.934,3.307,3.974a10.251,10.251,0,0,1-3.753-3.674,5.622,5.622,0,0,0,.042,3.228s-1.648-1.15-.441-3.947a13.19,13.19,0,0,1-1.139-2.766,12.473,12.473,0,0,0-1.68,4.588s-.955-2.283,1.512-5.291L763,64.645s-2.273,3.312-2.493,5.092c0,0-.609-2.483,2.4-5.774l-.2-2.682a20.955,20.955,0,0,0-2.845,4.63s-.073-2.425,2.819-5.4l.079-1.811s-1.575,2-1.947,2.625-.593.535-.593.535a8.64,8.64,0,0,1,2.562-3.942S763.162,54.194,762.941,54.147Z" transform="translate(-759.363 -41.481)" fill="#6c63ff" opacity="0.1"/>
    </g>
    <path id="Trazado_2470" data-name="Trazado 2470" d="M910.552,377.022a7.511,7.511,0,1,0,7.511,7.511A7.512,7.512,0,0,0,910.552,377.022ZM888.59,318.08v7.511H896.1l13.522,27.39-5.653,9.2a7.223,7.223,0,0,0-.94,3.569c0,5.029,3.438,7.511,8.1,7.511h43.919v-7.223h-43a.887.887,0,0,1-.94-.94,4.727,4.727,0,0,1,.4-.934l3.753-5.926h27.983a7.349,7.349,0,0,0,6.572-3.942l13.527-23.259a4.363,4.363,0,0,0,.378-1.879,3.611,3.611,0,0,0-3.758-3.569H904.369L900.8,318.08Zm58.942,58.942a7.511,7.511,0,1,0,7.517,7.513A7.511,7.511,0,0,0,947.532,377.022Z" transform="translate(933.196 1401.128)" fill="#01b9fe"/>
    <path id="Trazado_2471" data-name="Trazado 2471" d="M924.992,330.509h-6.3v-6.3h-4.724v6.3h-6.3v4.724h6.3v6.3h4.724v-6.3h6.3Z" transform="translate(946.125 1409.48)" fill="#fff"/>
  </g>
</svg>
